# xmcd
#
# Track frame offsets:
#	150
#	13262
#	25657
#	42797
#	58660
#	73167
#	84470
#	96505
#	112112
#	120632
#	127860
#	139405
#	149085
#	158552
#	170727
#	181932
#	194645
#	213195
#	226200
#	227575
#
# Disc length: 3291
#
# Revision: 2
# Processed by: cddbd v1.5.1PL0 Copyright (c) Steve Scherf et al.
# Submitted via: audiograbber 1.81.03
# Normalized: r1:DSETVAR1
#
DISCID=220cd914
DTITLE=Various Artist - The Allstar Country Concert  Disc 1
DYEAR=1900
DGENRE=Country
TTITLE0=Kenny Rogers - Ruby Don't Take Your Love To Town
TTITLE1=Kenny Rogers - Ruben James
TTITLE2=Kenny Rogers - Something's Burning
TTITLE3=Kenny Rogers - For The Good Times
TTITLE4=Tom T. Hall - I Like Beer
TTITLE5=Tom T, Hall - Ravishing Ruby
TTITLE6=Tom T. Hall - The Year Clayton Delaney Died
TTITLE7=Tom T. Hall - Old Dogs, Children and Watermelon Wine
TTITLE8=Jim Reeves - According To My Heart
TTITLE9=Jim Reeves - Bimbo
TTITLE10=Jim Reeves - Mexican Joe
TTITLE11=Jim Reeves - He'll Have To Go
TTITLE12=Frankie Laine - Rawhide
TTITLE13=Frankie Laine - High Noon
TTITLE14=Frankie Laine - Mule Train
TTITLE15=Frankie Laine - Cry Of The Wild Goose
TTITLE16=Johnny Russell - Got No Reason Now For Going Home
TTITLE17=Johnny Russell - Crystal Chandeliers
TTITLE18=Stonewall Jackson - Waterloo
TTITLE19=Stonewall Jackson - Shake'em Up Toll 'Em
EXTD=
EXTT0=
EXTT1=
EXTT2=
EXTT3=
EXTT4=
EXTT5=
EXTT6=
EXTT7=
EXTT8=
EXTT9=
EXTT10=
EXTT11=
EXTT12=
EXTT13=
EXTT14=
EXTT15=
EXTT16=
EXTT17=
EXTT18=
EXTT19=
PLAYORDER=
